<?xml version="1.0" encoding="utf-8"?>
<!-- Generator: Adobe Illustrator 26.0.1, SVG Export Plug-In . SVG Version: 6.00 Build 0)  -->
<svg version="1.1" id="Layer_1" xmlns="http://www.w3.org/2000/svg" xmlns:xlink="http://www.w3.org/1999/xlink" x="0px" y="0px"
	 viewBox="0 0 900 261.03" style="enable-background:new 0 0 900 261.03;" xml:space="preserve">
<style type="text/css">
	.st0{fill:#1EBBF0;}
	.st1{fill:#FFFFFF;}
</style>
<path id="XMLID_32_" class="st0" d="M878,261.03H22c-12.15,0-22-9.85-22-22V22C0,9.85,9.85,0,22,0h856c12.15,0,22,9.85,22,22v217.03
	C900,251.18,890.15,261.03,878,261.03z"/>
<g>
	<path class="st1" d="M531.69,111.57h-14.77l-2.81,7.41h-8.96l15.22-35.97h7.8l15.3,35.97h-8.96L531.69,111.57z M519.2,105.57h10.22
		l-5.14-13.47L519.2,105.57z"/>
	<path class="st1" d="M578.81,107c-0.32,3.87-1.94,6.92-4.87,9.14c-2.93,2.22-6.79,3.34-11.58,3.34c-5.24,0-9.36-1.55-12.37-4.66
		c-3-3.1-4.51-7.37-4.51-12.79v-2.2c0-3.46,0.69-6.51,2.08-9.14c1.38-2.64,3.36-4.66,5.94-6.07c2.57-1.41,5.56-2.11,8.97-2.11
		c4.72,0,8.52,1.11,11.4,3.34c2.88,2.22,4.55,5.35,5,9.36h-8.42c-0.21-2.32-0.94-4.01-2.2-5.05c-1.26-1.05-3.19-1.57-5.77-1.57
		c-2.81,0-4.91,0.89-6.3,2.66c-1.39,1.77-2.11,4.52-2.15,8.24v2.72c0,3.89,0.67,6.73,2.01,8.52s3.45,2.69,6.33,2.69
		c2.6,0,4.54-0.52,5.83-1.57s2.02-2.66,2.2-4.85H578.81z"/>
	<path class="st1" d="M607.42,111.57h-14.77l-2.81,7.41h-8.96l15.22-35.97h7.8l15.3,35.97h-8.96L607.42,111.57z M594.92,105.57
		h10.22L600,92.1L594.92,105.57z"/>
	<path class="st1" d="M623.03,118.98V83.01h12.58c3.59,0,6.81,0.71,9.64,2.14c2.84,1.42,5.05,3.45,6.64,6.08
		c1.59,2.63,2.39,5.61,2.39,8.96v1.66c0,3.34-0.78,6.32-2.34,8.92c-1.56,2.6-3.77,4.62-6.61,6.05s-6.05,2.16-9.63,2.17H623.03z
		 M631.45,89.01v24.02h4.07c3.29,0,5.81-0.95,7.55-2.84c1.74-1.89,2.63-4.6,2.67-8.13v-1.9c0-3.66-0.86-6.43-2.58-8.31
		c-1.72-1.89-4.24-2.83-7.55-2.83H631.45z"/>
	<path class="st1" d="M684.99,103.34h-16.17v9.69h18.98v5.95h-27.4V83.01h27.35v6h-18.92v8.57h16.17V103.34z"/>
	<path class="st1" d="M703.74,83.01l10.5,26.09l10.44-26.09h11.06v35.97h-8.45v-9.83l0.84-16.97l-11.03,26.81h-5.78L700.32,92.2
		l0.84,16.95v9.83h-8.42V83.01H703.74z"/>
	<path class="st1" d="M756.42,99.22l8.51-16.21h9.21l-13.42,22.93v13.05h-8.56v-13.05l-13.42-22.93h9.24L756.42,99.22z"/>
	<path class="st1" d="M821.27,89.01h-12.52v29.97h-8.42V89.01h-12.35v-6h33.3V89.01z"/>
	<path class="st1" d="M858.86,101.81c0,3.54-0.71,6.65-2.13,9.31c-1.42,2.67-3.46,4.73-6.11,6.18c-2.65,1.45-5.69,2.17-9.11,2.17
		c-3.39,0-6.41-0.72-9.07-2.15c-2.66-1.43-4.72-3.48-6.18-6.14s-2.2-5.72-2.22-9.18v-1.78c0-3.54,0.72-6.66,2.18-9.35
		c1.45-2.69,3.5-4.76,6.15-6.2s5.68-2.16,9.08-2.16c3.41,0,6.43,0.72,9.08,2.16s4.7,3.51,6.15,6.2c1.45,2.69,2.18,5.8,2.18,9.33
		V101.81z M850.33,100.18c0-3.77-0.77-6.64-2.3-8.6s-3.72-2.94-6.57-2.94c-2.83,0-5.01,0.97-6.54,2.9
		c-1.54,1.94-2.31,4.77-2.33,8.51v1.75c0,3.67,0.77,6.52,2.3,8.55c1.54,2.03,3.74,3.04,6.63,3.04c2.83,0,5-0.98,6.51-2.93
		c1.52-1.95,2.28-4.8,2.3-8.54V100.18z"/>
	<path class="st1" d="M517.27,176.98h-8.22v-35.97h8.22V176.98z"/>
	<path class="st1" d="M557.33,176.98h-8.22l-16-23.67v23.67h-8.22v-35.97h8.22l16.03,23.72v-23.72h8.19V176.98z"/>
	<path class="st1" d="M596.96,176.98h-8.22l-16-23.67v23.67h-8.22v-35.97h8.22l16.03,23.72v-23.72h8.19V176.98z"/>
	<path class="st1" d="M636.91,159.81c0,3.54-0.69,6.65-2.08,9.31c-1.39,2.67-3.38,4.73-5.96,6.18c-2.59,1.45-5.55,2.17-8.89,2.17
		c-3.31,0-6.26-0.72-8.85-2.15c-2.59-1.43-4.6-3.48-6.03-6.14s-2.15-5.72-2.17-9.18v-1.78c0-3.54,0.71-6.66,2.12-9.35
		c1.42-2.69,3.42-4.76,6-6.2c2.58-1.44,5.54-2.16,8.86-2.16s6.28,0.72,8.87,2.16c2.58,1.44,4.58,3.51,6,6.2
		c1.42,2.69,2.12,5.8,2.12,9.33V159.81z M628.58,158.18c0-3.77-0.75-6.64-2.25-8.6s-3.64-2.94-6.41-2.94c-2.76,0-4.89,0.97-6.38,2.9
		s-2.26,4.77-2.27,8.51v1.75c0,3.67,0.75,6.52,2.25,8.55s3.65,3.04,6.47,3.04c2.76,0,4.88-0.98,6.36-2.93s2.23-4.8,2.25-8.54V158.18
		z"/>
	<path class="st1" d="M657.02,168.06l9.04-27.05h9.15l-13.89,35.97h-8.58l-13.84-35.97h9.12L657.02,168.06z"/>
	<path class="st1" d="M699.44,169.57h-14.41l-2.74,7.41h-8.74l14.85-35.97h7.62l14.93,35.97h-8.74L699.44,169.57z M687.25,163.57
		h9.97l-5.01-13.47L687.25,163.57z"/>
	<path class="st1" d="M741.42,147.01H729.2v29.97h-8.22v-29.97h-12.06v-6h32.5V147.01z"/>
	<path class="st1" d="M770.11,161.34h-15.78v9.68h18.52v5.96h-26.75v-35.97h26.69v6h-18.47v8.57h15.78V161.34z"/>
	<path class="st1" d="M824.12,176.98h-8.22v-15.42h-16.03v15.42h-8.22v-35.97h8.22v14.58h16.03v-14.58h8.22V176.98z"/>
	<path class="st1" d="M846.07,163.81h-6.55v13.17h-8.22v-35.97h14.83c4.71,0,8.35,0.95,10.91,2.84c2.56,1.89,3.84,4.57,3.84,8.03
		c0,2.45-0.59,4.5-1.77,6.14c-1.18,1.64-2.96,2.94-5.36,3.92l8.63,14.7v0.35h-8.82L846.07,163.81z M839.52,157.81h6.63
		c2.06,0,3.66-0.47,4.79-1.42s1.7-2.25,1.7-3.92c0-1.7-0.53-3.03-1.6-4c-1.07-0.97-2.71-1.46-4.92-1.46h-6.6V157.81z"/>
</g>
<rect id="XMLID_29_" x="383.26" y="126.02" transform="matrix(6.455376e-11 -1 1 6.455376e-11 342.7456 603.7803)" class="st1" width="180" height="9"/>
<g id="XMLID_33_">
	<path class="st1" d="M136.27,203.53l-8.66-28.67H84.47l-8.19,28.67H47L93.76,57.5h26.14l46.29,146.03H136.27z M106.36,96.48
		l-14.17,50.12h28.03L106.36,96.48z"/>
	<path class="st1" d="M175.48,203.53V57.5h27.08v146.03H175.48z"/>
	<path class="st1" d="M295.93,203.53v-61.05h-43.46v61.05h-26.92V57.5h26.92v55.28h43.46V57.5h26.92v146.03H295.93z"/>
	<path class="st1" d="M405.51,203.53l-24.2-57.96h-9.18v57.96h-26.29V57.5h42.51c5.35,0,10.57,0.72,15.67,2.17
		c5.09,1.44,9.66,3.89,13.7,7.32c4.04,3.44,7.27,7.98,9.68,13.61c2.41,5.64,3.62,12.65,3.62,21.04c0,9.9-2.05,18.22-6.14,24.96
		c-4.09,6.74-9.76,11.55-17,14.44l29.13,62.5H405.51z M404.41,102.26c0-3.44-0.56-6.22-1.66-8.35c-1.11-2.13-2.53-3.78-4.27-4.95
		c-1.74-1.17-3.69-1.96-5.86-2.37c-2.16-0.41-4.25-0.62-6.25-0.62h-14.4V120h12.82c2.21,0,4.48-0.24,6.8-0.72
		c2.32-0.48,4.43-1.34,6.33-2.58c1.9-1.24,3.45-3.02,4.67-5.36C403.8,109,404.41,105.97,404.41,102.26z"/>
</g>
</svg>
